<svg width="128" height="128" viewBox="0 0 128 128" fill="none" xmlns="http://www.w3.org/2000/svg">
  <!-- Background circle -->
  <circle cx="64" cy="64" r="60" fill="url(#gradient)" stroke="#1DB954" stroke-width="4"/>
  
  <!-- Spotify logo -->
  <path d="M64 32C45.2 32 30 47.2 30 66C30 84.8 45.2 100 64 100C82.8 100 98 84.8 98 66C98 47.2 82.8 32 64 32ZM64 88C50.7 88 40 77.3 40 64C40 50.7 50.7 40 64 40C77.3 40 88 50.7 88 64C88 77.3 77.3 88 64 88Z" fill="#1DB954"/>
  <path d="M64 44C53.5 44 45 52.5 45 63C45 73.5 53.5 82 64 82C74.5 82 83 73.5 83 63C83 52.5 74.5 44 64 44ZM64 76C58.5 76 54 71.5 54 66C54 60.5 58.5 56 64 56C69.5 56 74 60.5 74 66C74 71.5 69.5 76 64 76Z" fill="#1DB954"/>
  <path d="M64 56C59.5 56 56 59.5 56 64C56 68.5 59.5 72 64 72C68.5 72 72 68.5 72 64C72 59.5 68.5 56 64 56Z" fill="#1DB954"/>
  
  <!-- Browser tab representation -->
  <rect x="20" y="20" width="88" height="12" rx="2" fill="rgba(255,255,255,0.2)"/>
  <rect x="22" y="22" width="40" height="8" rx="1" fill="#1DB954"/>
  <circle cx="28" cy="26" r="2" fill="white"/>
  <circle cx="34" cy="26" r="2" fill="white"/>
  <circle cx="40" cy="26" r="2" fill="white"/>
  
  <!-- Music notes -->
  <path d="M85 45C85 42.2 82.8 40 80 40C77.2 40 75 42.2 75 45C75 47.8 77.2 50 80 50C82.8 50 85 47.8 85 45Z" fill="#1DB954"/>
  <path d="M75 45V55L85 55V45" stroke="#1DB954" stroke-width="2" fill="none"/>
  
  <path d="M95 65C95 62.2 92.8 60 90 60C87.2 60 85 62.2 85 65C85 67.8 87.2 70 90 70C92.8 70 95 67.8 95 65Z" fill="#1DB954"/>
  <path d="M85 65V75L95 75V65" stroke="#1DB954" stroke-width="2" fill="none"/>
  
  <path d="M75 85C75 82.2 72.8 80 70 80C67.2 80 65 82.2 65 85C65 87.8 67.2 90 70 90C72.8 90 75 87.8 75 85Z" fill="#1DB954"/>
  <path d="M65 85V95L75 95V85" stroke="#1DB954" stroke-width="2" fill="none"/>
  
  <!-- Gradient definition -->
  <defs>
    <linearGradient id="gradient" x1="0%" y1="0%" x2="100%" y2="100%">
      <stop offset="0%" style="stop-color:#667eea;stop-opacity:1" />
      <stop offset="100%" style="stop-color:#764ba2;stop-opacity:1" />
    </linearGradient>
  </defs>
</svg>
